<svg width="16" height="16" viewBox="0 0 16 16" fill="none" xmlns="http://www.w3.org/2000/svg">
<path d="M8.00439 15.3257C12.021 15.3257 15.3257 12.021 15.3257 7.99561C15.3257 3.979 12.021 0.674316 7.99561 0.674316C3.979 0.674316 0.674316 3.979 0.674316 7.99561C0.674316 12.021 3.979 15.3257 8.00439 15.3257ZM4.80518 9.09424C4.40088 9.09424 4.09326 8.78662 4.09326 8.38232C4.09326 7.98682 4.40088 7.6792 4.80518 7.6792H7.28369V4.18994C7.28369 3.78564 7.6001 3.47803 7.99561 3.47803C8.3999 3.47803 8.70752 3.78564 8.70752 4.18994V8.38232C8.70752 8.78662 8.3999 9.09424 7.99561 9.09424H4.80518Z" fill="#FF2525"/>
</svg>
