<svg width="16" height="16" viewBox="0 0 16 16" fill="none" xmlns="http://www.w3.org/2000/svg">
<path d="M7.75439 15.3257C11.771 15.3257 15.0757 12.021 15.0757 7.99561C15.0757 3.979 11.771 0.674316 7.74561 0.674316C3.729 0.674316 0.424316 3.979 0.424316 7.99561C0.424316 12.021 3.729 15.3257 7.75439 15.3257ZM4.55518 9.09424C4.15088 9.09424 3.84326 8.78662 3.84326 8.38232C3.84326 7.98682 4.15088 7.6792 4.55518 7.6792H7.03369V4.18994C7.03369 3.78564 7.3501 3.47803 7.74561 3.47803C8.1499 3.47803 8.45752 3.78564 8.45752 4.18994V8.38232C8.45752 8.78662 8.1499 9.09424 7.74561 9.09424H4.55518Z" fill="#99A2AD"/>
</svg>
